<?xml version="1.0" encoding="UTF-8" standalone="no"?>
<!-- Created with Inkscape (http://www.inkscape.org/) -->

<svg
   xmlns:dc="http://purl.org/dc/elements/1.1/"
   xmlns:cc="http://creativecommons.org/ns#"
   xmlns:rdf="http://www.w3.org/1999/02/22-rdf-syntax-ns#"
   xmlns:svg="http://www.w3.org/2000/svg"
   xmlns="http://www.w3.org/2000/svg"
   xmlns:sodipodi="http://sodipodi.sourceforge.net/DTD/sodipodi-0.dtd"
   xmlns:inkscape="http://www.inkscape.org/namespaces/inkscape"
   width="16"
   height="16"
   id="svg2"
   version="1.1"
   inkscape:version="0.48.5 r10040">
  <defs
     id="defs4" />
  <sodipodi:namedview
     id="base"
     pagecolor="#ffffff"
     bordercolor="#666666"
     borderopacity="1.0"
     inkscape:pageopacity="0.0"
     inkscape:pageshadow="2"
     inkscape:zoom="27.798135"
     inkscape:cx="8"
     inkscape:cy="6.3733734"
     inkscape:document-units="px"
     inkscape:current-layer="layer1"
     showgrid="true"
     inkscape:snap-grids="true"
     inkscape:object-paths="false"
     inkscape:snap-to-guides="true"
     inkscape:snap-global="true"
     inkscape:window-width="1182"
     inkscape:window-height="855"
     inkscape:window-x="517"
     inkscape:window-y="204"
     inkscape:window-maximized="0">
    <inkscape:grid
       type="xygrid"
       id="grid2985"
       empspacing="5"
       visible="true"
       enabled="true"
       snapvisiblegridlinesonly="true" />
  </sodipodi:namedview>
  <metadata
     id="metadata7">
    <rdf:RDF>
      <cc:Work
         rdf:about="">
        <dc:format>image/svg+xml</dc:format>
        <dc:type
           rdf:resource="http://purl.org/dc/dcmitype/StillImage" />
        <dc:title></dc:title>
      </cc:Work>
    </rdf:RDF>
  </metadata>
  <g
     inkscape:label="Calque 1"
     inkscape:groupmode="layer"
     id="layer1"
     transform="translate(0,-1036.3622)">
    <path
       style="fill:#ffffff;fill-opacity:1;stroke:none"
       d="M 7.8125 3 L 8.40625 6 L 9 6 L 9 3 L 7.8125 3 z M 11 3 L 11 7 L 8.59375 7 L 8.8125 8 L 11 8 L 12 9 L 12 15 L 14 15 L 14 4 L 13 3 L 11 3 z M 2 7.59375 L 2 15 L 4 15 L 4 8 L 2 7.59375 z M 5 9 L 5 10 L 11 10 L 11 9 L 9 9 L 5 9 z M 5 11 L 5 12 L 11 12 L 11 11 L 5 11 z M 5 13 L 5 14 L 11 14 L 11 13 L 5 13 z "
       transform="translate(0,1036.3622)"
       id="path3853" />
    <path
       style="font-size:medium;font-style:normal;font-variant:normal;font-weight:normal;font-stretch:normal;text-indent:0;text-align:start;text-decoration:none;line-height:normal;letter-spacing:normal;word-spacing:normal;text-transform:none;direction:ltr;block-progression:tb;writing-mode:lr-tb;text-anchor:start;baseline-shift:baseline;color:#000000;fill:#ffffff;fill-opacity:1;fill-rule:nonzero;stroke:none;stroke-width:1.39999998000000003;marker:none;visibility:visible;display:inline;overflow:visible;enable-background:accumulate;font-family:Sans;-inkscape-font-specification:Sans"
       d="m 8.8125,1045.1747 c -5.875,4.7917 -2.9375,2.3958 0,0 z M 2,1037.3622 l 1.5,1.5 1.5,1.5 0.5,-0.5 1,-1 0.6875,4.6875 -4.6875,-0.6875 1,-1 0.5,-0.5 -0.5,-0.5 -2.5,-2.5 z"
       id="path3786"
       inkscape:connector-curvature="0"
       sodipodi:nodetypes="cccccccccccccc" />
  </g>
</svg>
