<?xml version="1.0" encoding="UTF-8" standalone="no"?>
<!-- Created with Inkscape (http://www.inkscape.org/) -->

<svg
   xmlns:dc="http://purl.org/dc/elements/1.1/"
   xmlns:cc="http://creativecommons.org/ns#"
   xmlns:rdf="http://www.w3.org/1999/02/22-rdf-syntax-ns#"
   xmlns:svg="http://www.w3.org/2000/svg"
   xmlns="http://www.w3.org/2000/svg"
   xmlns:sodipodi="http://sodipodi.sourceforge.net/DTD/sodipodi-0.dtd"
   xmlns:inkscape="http://www.inkscape.org/namespaces/inkscape"
   width="16"
   height="16"
   id="svg2"
   version="1.1"
   inkscape:version="0.48.5 r10040">
  <defs
     id="defs4" />
  <sodipodi:namedview
     id="base"
     pagecolor="#ffffff"
     bordercolor="#666666"
     borderopacity="1.0"
     inkscape:pageopacity="0.0"
     inkscape:pageshadow="2"
     inkscape:zoom="27.798135"
     inkscape:cx="8"
     inkscape:cy="12.129155"
     inkscape:document-units="px"
     inkscape:current-layer="layer1"
     showgrid="true"
     inkscape:snap-grids="true"
     inkscape:object-paths="false"
     inkscape:snap-to-guides="true"
     inkscape:snap-global="true"
     inkscape:window-width="1182"
     inkscape:window-height="855"
     inkscape:window-x="517"
     inkscape:window-y="204"
     inkscape:window-maximized="0">
    <inkscape:grid
       type="xygrid"
       id="grid2985"
       empspacing="5"
       visible="true"
       enabled="true"
       snapvisiblegridlinesonly="true" />
  </sodipodi:namedview>
  <metadata
     id="metadata7">
    <rdf:RDF>
      <cc:Work
         rdf:about="">
        <dc:format>image/svg+xml</dc:format>
        <dc:type
           rdf:resource="http://purl.org/dc/dcmitype/StillImage" />
        <dc:title></dc:title>
      </cc:Work>
    </rdf:RDF>
  </metadata>
  <g
     inkscape:label="Calque 1"
     inkscape:groupmode="layer"
     id="layer1"
     transform="translate(0,-1036.3622)">
    <path
       style="fill:#ffffff;fill-opacity:1;stroke:none"
       d="M 8 4 L 8.40625 6 L 13 6 C 13.552285 6 14 5.5523 14 5 C 14 4.4477 13.552285 4 13 4 L 8 4 z M 8.59375 7 L 9 9 L 13 9 C 13.552285 9 14 8.5523 14 8 C 14 7.4477 13.552285 7 13 7 L 8.59375 7 z M 9 9 L 5.0625 8.21875 C 5.1684865 8.6572601 5.5289336 9 6 9 L 9 9 z M 2.09375 7.625 C 2.0431472 7.7446383 2 7.8619288 2 8 C 2 8.5522847 2.4477153 9 3 9 C 3.5522847 9 4 8.5522847 4 8 L 2.09375 7.625 z M 3 10 C 2.4477153 10 2 10.447715 2 11 C 2 11.552285 2.4477153 12 3 12 C 3.5522847 12 4 11.552285 4 11 C 4 10.447715 3.5522847 10 3 10 z M 6 10 C 5.4477153 10 5 10.4477 5 11 C 5 11.5523 5.4477153 12 6 12 L 13 12 C 13.552285 12 14 11.5523 14 11 C 14 10.4477 13.552285 10 13 10 L 6 10 z M 3 13 C 2.4477153 13 2 13.447715 2 14 C 2 14.552285 2.4477153 15 3 15 C 3.5522847 15 4 14.552285 4 14 C 4 13.447715 3.5522847 13 3 13 z M 6 13 C 5.4477153 13 5 13.4477 5 14 C 5 14.5523 5.4477153 15 6 15 L 13 15 C 13.552285 15 14 14.5523 14 14 C 14 13.4477 13.552285 13 13 13 L 6 13 z "
       transform="translate(0,1036.3622)"
       id="path2989" />
    <path
       style="font-size:medium;font-style:normal;font-variant:normal;font-weight:normal;font-stretch:normal;text-indent:0;text-align:start;text-decoration:none;line-height:normal;letter-spacing:normal;word-spacing:normal;text-transform:none;direction:ltr;block-progression:tb;writing-mode:lr-tb;text-anchor:start;baseline-shift:baseline;color:#000000;fill:#ffffff;fill-opacity:1;fill-rule:nonzero;stroke:none;stroke-width:1.39999998000000003;marker:none;visibility:visible;display:inline;overflow:visible;enable-background:accumulate;font-family:Sans;-inkscape-font-specification:Sans"
       d="m 8.8125,1045.1747 c -5.875,4.7917 -2.9375,2.3958 0,0 z M 2,1037.3622 l 1.5,1.5 1.5,1.5 0.5,-0.5 1,-1 0.6875,4.6875 -4.6875,-0.6875 1,-1 0.5,-0.5 -0.5,-0.5 -2.5,-2.5 z"
       id="path3786"
       inkscape:connector-curvature="0"
       sodipodi:nodetypes="cccccccccccccc" />
  </g>
</svg>
